<svg width="320" height="86" viewBox="0 0 320 86" fill="none" xmlns="http://www.w3.org/2000/svg">
<rect width="319.371" height="86" rx="43" fill="black"/>
<path d="M244.813 57.2086V27.4369H252.668V57.2086H244.813ZM248.754 23.2802C247.35 23.2802 246.226 22.9113 245.38 22.1735C244.534 21.4358 244.111 20.4821 244.111 19.3124C244.111 18.1248 244.534 17.1711 245.38 16.4513C246.226 15.7136 247.35 15.3447 248.754 15.3447C250.157 15.3447 251.282 15.7136 252.128 16.4513C252.973 17.1711 253.396 18.1248 253.396 19.3124C253.396 20.4821 252.964 21.4358 252.101 22.1735C251.255 22.9113 250.139 23.2802 248.754 23.2802Z" fill="white"/>
<path d="M224.519 57.2086V33.9149H219.714V27.7338H224.519V24.7108C224.519 21.7057 225.329 19.4744 226.948 18.0168C228.586 16.5413 231.177 15.8035 234.722 15.8035C236.233 15.8035 237.583 15.9025 238.771 16.1004V21.6607C237.907 21.5707 237.124 21.5257 236.422 21.5257C234.911 21.5257 233.831 21.8317 233.183 22.4435C232.535 23.0373 232.212 23.982 232.212 25.2776V27.7338H238.528V33.9149H232.374V57.2086H224.519Z" fill="white"/>
<path d="M196.91 57.6675C193.167 57.6675 190.207 56.2909 188.03 53.5378C185.871 50.7846 184.791 47.0328 184.791 42.2823C184.791 37.5497 185.871 33.8159 188.03 31.0808C190.207 28.3276 193.167 26.951 196.91 26.951C198.926 26.951 200.716 27.4189 202.282 28.3546C203.847 29.2723 205.017 30.5499 205.79 32.1874H206.249V16.0734H214.104V57.2086H206.492V52.5391H206.006C205.215 54.1406 204.018 55.4002 202.417 56.3179C200.815 57.2176 198.98 57.6675 196.91 57.6675ZM204.522 35.9123C203.316 34.3287 201.67 33.537 199.582 33.537C197.495 33.537 195.849 34.3197 194.643 35.8853C193.455 37.4328 192.862 39.5741 192.862 42.3093C192.862 45.0624 193.455 47.2217 194.643 48.7872C195.831 50.3348 197.477 51.1085 199.582 51.1085C201.688 51.1085 203.334 50.3348 204.522 48.7872C205.727 47.2217 206.33 45.0714 206.33 42.3363C206.33 39.6191 205.727 37.4778 204.522 35.9123Z" fill="white"/>
<path d="M152.09 57.2086V27.4369H159.702V32.2144H160.188C160.889 30.5049 161.987 29.1734 163.481 28.2196C164.992 27.2659 166.828 26.7891 168.987 26.7891C172.28 26.7891 174.799 27.7608 176.544 29.7042C178.29 31.6296 179.163 34.3827 179.163 37.9636V57.2086H171.308V39.826C171.308 35.6513 169.482 33.564 165.829 33.564C164.011 33.564 162.572 34.1578 161.51 35.3454C160.466 36.5151 159.945 38.0806 159.945 40.042V57.2086H152.09Z" fill="white"/>
<path d="M146.912 50.0294V57.9266H117.672V11L146.912 11V19.2236H125.504V29.2746H141.299V37.4982H125.504V50.0294H146.912Z" fill="#FFC802"/>
<path d="M98.4967 20.3651H106.351V27.7338H112.532V33.9149H106.351V47.3027C106.351 48.5983 106.657 49.552 107.269 50.1638C107.899 50.7757 108.88 51.0816 110.211 51.0816C111.093 51.0816 111.867 51.0456 112.532 50.9736V56.9657C111.327 57.1997 110.013 57.3166 108.592 57.3166C104.975 57.3166 102.384 56.6868 100.818 55.4272C99.2705 54.1676 98.4967 52.0803 98.4967 49.1652V33.9149H93.8542V27.7338H98.4967V20.3651Z" fill="white"/>
<path d="M262.769 20.3984H270.623V27.7671H276.804V33.9482H270.623V47.336C270.623 48.6316 270.929 49.5853 271.541 50.1971C272.171 50.8089 273.151 51.1148 274.483 51.1148C275.365 51.1148 276.138 51.0788 276.804 51.0069V56.999C275.599 57.2329 274.285 57.3499 272.863 57.3499C269.247 57.3499 266.655 56.7201 265.09 55.4605C263.542 54.2009 262.769 52.1135 262.769 49.1984V33.9482H258.126V27.7671H262.769V20.3984Z" fill="white"/>
<path d="M74.5544 51.7563C76.3718 51.7563 77.8924 51.2435 79.116 50.2178C80.3396 49.1921 80.9514 47.9235 80.9514 46.412V44.2257L74.9323 44.6036C71.5853 44.8375 69.9118 46.0341 69.9118 48.1934C69.9118 49.2911 70.3347 50.1638 71.1805 50.8116C72.0442 51.4414 73.1688 51.7563 74.5544 51.7563ZM71.9632 57.6675C69.0841 57.6675 66.7358 56.8487 64.9184 55.2113C63.119 53.5738 62.2192 51.4054 62.2192 48.7063C62.2192 46.0251 63.2089 43.9198 65.1883 42.3902C67.1857 40.8427 70.0378 39.961 73.7447 39.7451L80.9514 39.3132V36.884C80.9514 35.6423 80.5195 34.6886 79.6558 34.0228C78.7921 33.3391 77.5505 32.9972 75.931 32.9972C73.0159 32.9972 71.2254 33.9149 70.5596 35.7503H63.3259C63.5778 32.9972 64.8734 30.8198 67.2127 29.2183C69.57 27.5988 72.62 26.7891 76.3628 26.7891C80.2856 26.7891 83.3177 27.6708 85.459 29.4343C87.6183 31.1977 88.698 33.6809 88.698 36.884V57.2086H81.0864V53.3218H80.6005C79.8268 54.6894 78.6751 55.7601 77.1456 56.5338C75.6161 57.2896 73.8886 57.6675 71.9632 57.6675Z" fill="white"/>
<path d="M44.8045 57.2086V33.9149H40V27.7338H44.8045V24.7108C44.8045 21.7057 45.6143 19.4744 47.2338 18.0168C48.8712 16.5413 51.4624 15.8035 55.0073 15.8035C56.5189 15.8035 57.8684 15.9025 59.0561 16.1004V21.6607C58.1923 21.5707 57.4096 21.5257 56.7078 21.5257C55.1963 21.5257 54.1166 21.8317 53.4688 22.4435C52.821 23.0373 52.4971 23.982 52.4971 25.2776V27.7338H58.8131V33.9149H52.6591V57.2086H44.8045Z" fill="white"/>
<path d="M205.685 71.9589V66.616H207.051V67.4734H207.138C207.264 67.1666 207.461 66.9276 207.729 66.7565C208 66.5853 208.33 66.4997 208.717 66.4997C209.308 66.4997 209.76 66.6741 210.073 67.0229C210.387 67.3684 210.543 67.8625 210.543 68.5051V71.9589H209.134V68.8394C209.134 68.0902 208.806 67.7156 208.15 67.7156C207.824 67.7156 207.566 67.8221 207.375 68.0353C207.188 68.2452 207.094 68.5261 207.094 68.8781V71.9589H205.685Z" fill="white"/>
<path d="M203.798 71.334C203.333 71.8281 202.691 72.0752 201.87 72.0752C201.05 72.0752 200.406 71.8281 199.938 71.334C199.473 70.84 199.24 70.1569 199.24 69.285C199.24 68.4196 199.474 67.7398 199.942 67.2457C200.414 66.7484 201.056 66.4997 201.87 66.4997C202.684 66.4997 203.325 66.7484 203.793 67.2457C204.265 67.7398 204.501 68.4196 204.501 69.285C204.501 70.1569 204.266 70.84 203.798 71.334ZM201.87 70.9223C202.245 70.9223 202.536 70.7802 202.742 70.496C202.949 70.2086 203.052 69.8049 203.052 69.285C203.052 68.7716 202.947 68.3711 202.737 68.0837C202.531 67.7963 202.242 67.6526 201.87 67.6526C201.496 67.6526 201.205 67.7963 200.998 68.0837C200.792 68.3711 200.688 68.7716 200.688 69.285C200.688 69.8049 200.79 70.2086 200.994 70.496C201.2 70.7802 201.492 70.9223 201.87 70.9223Z" fill="white"/>
<path d="M196.762 72.0894V66.7465H198.172V72.0894H196.762ZM197.469 66.0005C197.218 66.0005 197.016 65.9343 196.864 65.8019C196.712 65.6695 196.636 65.4984 196.636 65.2885C196.636 65.0753 196.712 64.9042 196.864 64.775C197.016 64.6426 197.218 64.5764 197.469 64.5764C197.721 64.5764 197.923 64.6426 198.075 64.775C198.227 64.9042 198.303 65.0753 198.303 65.2885C198.303 65.4984 198.225 65.6695 198.07 65.8019C197.918 65.9343 197.718 66.0005 197.469 66.0005Z" fill="white"/>
<path d="M193.547 65.3469H194.957V66.6693H196.066V67.7786H194.957V70.1812C194.957 70.4137 195.012 70.5848 195.122 70.6946C195.235 70.8044 195.411 70.8593 195.65 70.8593C195.808 70.8593 195.947 70.8529 196.066 70.84V71.9153C195.85 71.9573 195.614 71.9783 195.359 71.9783C194.71 71.9783 194.245 71.8653 193.964 71.6392C193.686 71.4132 193.547 71.0386 193.547 70.5154V67.7786H192.714V66.6693H193.547V65.3469Z" fill="white"/>
<path d="M189.712 70.9804C190.039 70.9804 190.311 70.8884 190.531 70.7043C190.751 70.5202 190.86 70.2926 190.86 70.0213V69.6289L189.78 69.6968C189.18 69.7387 188.879 69.9535 188.879 70.341C188.879 70.538 188.955 70.6946 189.107 70.8109C189.262 70.9239 189.464 70.9804 189.712 70.9804ZM189.247 72.0413C188.731 72.0413 188.309 71.8943 187.983 71.6005C187.66 71.3066 187.499 70.9175 187.499 70.4331C187.499 69.9519 187.676 69.5741 188.031 69.2996C188.39 69.0218 188.902 68.8636 189.567 68.8248L190.86 68.7473V68.3114C190.86 68.0886 190.783 67.9174 190.628 67.7979C190.473 67.6752 190.25 67.6138 189.959 67.6138C189.436 67.6138 189.115 67.7785 188.995 68.1079H187.697C187.742 67.6138 187.975 67.2231 188.395 66.9357C188.818 66.645 189.365 66.4997 190.037 66.4997C190.741 66.4997 191.285 66.658 191.669 66.9744C192.057 67.2909 192.251 67.7366 192.251 68.3114V71.9589H190.885V71.2614H190.797C190.659 71.5068 190.452 71.699 190.177 71.8378C189.903 71.9734 189.593 72.0413 189.247 72.0413Z" fill="white"/>
<path d="M186.91 68.5003H185.592C185.544 68.2387 185.428 68.0337 185.244 67.8851C185.063 67.7333 184.825 67.6574 184.531 67.6574C184.15 67.6574 183.857 67.7963 183.65 68.074C183.446 68.3517 183.345 68.7522 183.345 69.2753C183.345 69.8049 183.446 70.2118 183.65 70.496C183.857 70.777 184.15 70.9175 184.531 70.9175C184.822 70.9175 185.058 70.848 185.239 70.7092C185.423 70.5703 185.541 70.3701 185.592 70.1085H186.91C186.852 70.7124 186.613 71.1919 186.193 71.5472C185.773 71.8992 185.219 72.0752 184.531 72.0752C183.698 72.0752 183.054 71.833 182.599 71.3486C182.147 70.8609 181.921 70.1699 181.921 69.2753C181.921 68.3873 182.147 67.7027 182.599 67.2215C183.051 66.7403 183.695 66.4997 184.531 66.4997C185.229 66.4997 185.784 66.679 186.198 67.0374C186.614 67.3959 186.852 67.8835 186.91 68.5003Z" fill="white"/>
<path d="M179.41 72.0315V66.6886H180.819V72.0315H179.41ZM180.117 65.9426C179.865 65.9426 179.663 65.8764 179.512 65.744C179.36 65.6116 179.284 65.4405 179.284 65.2306C179.284 65.0174 179.36 64.8463 179.512 64.7171C179.663 64.5847 179.865 64.5185 180.117 64.5185C180.369 64.5185 180.571 64.5847 180.723 64.7171C180.874 64.8463 180.95 65.0174 180.95 65.2306C180.95 65.4405 180.873 65.6116 180.718 65.744C180.566 65.8764 180.366 65.9426 180.117 65.9426Z" fill="white"/>
<path d="M176.286 71.9589V67.7786H175.424V66.6693H176.286V66.1267C176.286 65.5875 176.431 65.187 176.722 64.9254C177.016 64.6606 177.481 64.5282 178.117 64.5282C178.388 64.5282 178.631 64.546 178.844 64.5815V65.5794C178.689 65.5632 178.548 65.5552 178.422 65.5552C178.151 65.5552 177.957 65.6101 177.841 65.7199C177.725 65.8264 177.667 65.996 177.667 66.2285V66.6693H178.8V67.7786H177.696V71.9589H176.286Z" fill="white"/>
<path d="M173.265 72.0894V66.7465H174.675V72.0894H173.265ZM173.973 66.0005C173.721 66.0005 173.519 65.9343 173.367 65.8019C173.215 65.6695 173.139 65.4984 173.139 65.2885C173.139 65.0753 173.215 64.9042 173.367 64.775C173.519 64.6426 173.721 64.5764 173.973 64.5764C174.224 64.5764 174.426 64.6426 174.578 64.775C174.73 64.9042 174.806 65.0753 174.806 65.2885C174.806 65.4984 174.728 65.6695 174.573 65.8019C174.421 65.9343 174.221 66.0005 173.973 66.0005Z" fill="white"/>
<path d="M169.65 70.2151H169.562L168.569 71.9589H167.073L168.749 69.3189L167.063 66.616H168.681L169.625 68.3695H169.713L170.657 66.616H172.198L170.521 69.256L172.212 71.9589H170.643L169.65 70.2151Z" fill="white"/>
<path d="M165.864 71.334C165.399 71.8281 164.756 72.0752 163.936 72.0752C163.116 72.0752 162.472 71.8281 162.003 71.334C161.538 70.84 161.306 70.1569 161.306 69.285C161.306 68.4196 161.54 67.7398 162.008 67.2457C162.48 66.7484 163.122 66.4997 163.936 66.4997C164.75 66.4997 165.391 66.7484 165.859 67.2457C166.331 67.7398 166.566 68.4196 166.566 69.285C166.566 70.1569 166.332 70.84 165.864 71.334ZM163.936 70.9223C164.311 70.9223 164.601 70.7802 164.808 70.496C165.015 70.2086 165.118 69.8049 165.118 69.285C165.118 68.7716 165.013 68.3711 164.803 68.0837C164.597 67.7963 164.308 67.6526 163.936 67.6526C163.562 67.6526 163.271 67.7963 163.064 68.0837C162.858 68.3711 162.754 68.7716 162.754 69.285C162.754 69.8049 162.856 70.2086 163.059 70.496C163.266 70.7802 163.558 70.9223 163.936 70.9223Z" fill="white"/>
<path d="M158.27 65.3469H159.68V66.6693H160.789V67.7786H159.68V70.1812C159.68 70.4137 159.735 70.5848 159.845 70.6946C159.958 70.8044 160.134 70.8593 160.373 70.8593C160.531 70.8593 160.67 70.8529 160.789 70.84V71.9153C160.573 71.9573 160.337 71.9783 160.082 71.9783C159.433 71.9783 158.968 71.8653 158.687 71.6392C158.409 71.4132 158.27 71.0386 158.27 70.5154V67.7786H157.437V66.6693H158.27V65.3469Z" fill="white"/>
<path d="M154.571 67.5799C154.245 67.5799 153.976 67.6849 153.762 67.8948C153.553 68.1047 153.435 68.3824 153.409 68.728H155.686C155.669 68.3727 155.561 68.0934 155.361 67.89C155.164 67.6833 154.901 67.5799 154.571 67.5799ZM155.715 70.4379H157.027C156.921 70.9449 156.65 71.3453 156.214 71.6392C155.781 71.9299 155.238 72.0752 154.586 72.0752C153.772 72.0752 153.138 71.833 152.682 71.3486C152.227 70.8609 151.999 70.1828 151.999 69.3141C151.999 68.4454 152.229 67.7592 152.687 67.2554C153.146 66.7516 153.772 66.4997 154.567 66.4997C155.355 66.4997 155.968 66.7371 156.407 67.2118C156.85 67.6865 157.071 68.3485 157.071 69.1978V69.629H153.404V69.7016C153.414 70.0988 153.527 70.4137 153.743 70.6462C153.963 70.8755 154.257 70.9901 154.625 70.9901C154.902 70.9901 155.135 70.9433 155.322 70.8496C155.51 70.7528 155.64 70.6155 155.715 70.4379Z" fill="white"/>
<path d="M145.084 64.6491H147.943C149.023 64.6491 149.86 64.9646 150.454 65.5957C151.051 66.2234 151.35 67.1093 151.35 68.2534C151.35 69.4379 151.053 70.3525 150.459 70.9971C149.869 71.6383 149.03 71.9589 147.943 71.9589H145.084V64.6491ZM146.604 65.9551V70.6529H147.701C148.376 70.6529 148.894 70.4504 149.256 70.0454C149.619 69.6371 149.8 69.0482 149.8 68.2787C149.8 67.543 149.615 66.9726 149.246 66.5677C148.877 66.1593 148.362 65.9551 147.701 65.9551H146.604Z" fill="white"/>
<path d="M137.302 74.0474C137.003 74.0474 136.825 74.0425 136.767 74.0326V72.875C136.799 72.8816 136.905 72.8849 137.085 72.8849C137.351 72.8849 137.56 72.8371 137.711 72.7414C137.862 72.6491 137.966 72.5007 138.024 72.2962L138.072 72.0983L136.208 66.6071H137.754L138.872 70.7428H138.959L140.076 66.6071H141.56L139.729 72.1478C139.505 72.847 139.209 73.3384 138.843 73.622C138.48 73.9056 137.966 74.0474 137.302 74.0474Z" fill="white"/>
<path d="M132.472 72.0413C131.801 72.0413 131.269 71.7943 130.879 71.3002C130.491 70.8061 130.297 70.1328 130.297 69.2802C130.297 68.4309 130.491 67.7608 130.879 67.27C131.269 66.7759 131.801 66.5288 132.472 66.5288C132.834 66.5288 133.155 66.6128 133.436 66.7807C133.717 66.9454 133.927 67.1747 134.066 67.4686H134.148V64.5767H135.558V71.9589H134.192V71.1209H134.105C133.963 71.4083 133.748 71.6344 133.46 71.7991C133.173 71.9606 132.844 72.0413 132.472 72.0413ZM133.838 68.137C133.622 67.8528 133.326 67.7108 132.952 67.7108C132.577 67.7108 132.282 67.8512 132.065 68.1322C131.852 68.4099 131.746 68.7942 131.746 69.2851C131.746 69.7791 131.852 70.1667 132.065 70.4476C132.279 70.7253 132.574 70.8642 132.952 70.8642C133.33 70.8642 133.625 70.7253 133.838 70.4476C134.055 70.1667 134.163 69.7808 134.163 69.2899C134.163 68.8023 134.055 68.418 133.838 68.137Z" fill="white"/>
<path d="M128.803 71.334C128.338 71.8281 127.695 72.0752 126.875 72.0752C126.055 72.0752 125.41 71.8281 124.942 71.334C124.477 70.84 124.245 70.1569 124.245 69.285C124.245 68.4196 124.479 67.7398 124.947 67.2457C125.418 66.7484 126.061 66.4997 126.875 66.4997C127.689 66.4997 128.33 66.7484 128.798 67.2457C129.269 67.7398 129.505 68.4196 129.505 69.285C129.505 70.1569 129.271 70.84 128.803 71.334ZM126.875 70.9223C127.25 70.9223 127.54 70.7802 127.747 70.496C127.954 70.2086 128.057 69.8049 128.057 69.285C128.057 68.7716 127.952 68.3711 127.742 68.0837C127.535 67.7963 127.246 67.6526 126.875 67.6526C126.5 67.6526 126.21 67.7963 126.003 68.0837C125.796 68.3711 125.693 68.7716 125.693 69.285C125.693 69.8049 125.795 70.2086 125.998 70.496C126.205 70.7802 126.497 70.9223 126.875 70.9223Z" fill="white"/>
<path d="M120.599 72.0895H117.281V64.6491H120.512C121.226 64.6491 121.786 64.8141 122.192 65.1441C122.598 65.4741 122.801 65.9278 122.801 66.5053C122.801 66.9006 122.673 67.2495 122.417 67.552C122.161 67.8545 121.844 68.035 121.465 68.0934V68.1862C121.953 68.224 122.356 68.4097 122.673 68.7431C122.994 69.0765 123.155 69.4821 123.155 69.96C123.155 70.6131 122.926 71.1321 122.469 71.5171C122.011 71.8987 121.388 72.0895 120.599 72.0895ZM118.827 65.8402V67.7325H119.99C120.406 67.7325 120.726 67.65 120.948 67.485C121.169 67.32 121.28 67.088 121.28 66.7889C121.28 66.4898 121.178 66.2578 120.973 66.0928C120.772 65.9244 120.487 65.8402 120.118 65.8402H118.827ZM118.827 70.8984H120.205C120.649 70.8984 120.988 70.8073 121.224 70.6251C121.46 70.4395 121.577 70.1731 121.577 69.8259C121.577 69.4856 121.456 69.2278 121.214 69.0525C120.975 68.8737 120.627 68.7843 120.169 68.7843H118.827V70.8984Z" fill="white"/>
<path d="M47.054 69.2177L110.493 69.2177" stroke="white" stroke-width="5.22132" stroke-linecap="round"/>
<path d="M213.092 69.2177L278.62 69.2177" stroke="white" stroke-width="1.82746"/>
</svg>
