<svg width="48" height="48" viewBox="0 0 48 48" fill="none" xmlns="http://www.w3.org/2000/svg">
<path d="M41.3473 19.8416H41.2285V16.9307C41.2285 7.58014 33.6484 0 24.2978 0C14.9471 0 7.36707 7.58014 7.36707 16.9307V19.8416H6.65425C4.04036 19.8416 2.02059 22.1583 2.02059 24.8317V32.2574C1.95475 34.8485 4.00193 37.0023 6.59296 37.0681C6.61343 37.0687 6.63378 37.069 6.65425 37.0693H11.0503C11.6729 37.04 12.154 36.5114 12.1247 35.8888C12.1236 35.8664 12.1219 35.844 12.1196 35.8217V21.2672C12.1196 20.5544 11.7037 19.8415 11.0503 19.8415H9.74331V16.9306C9.74331 8.89243 16.2596 2.37613 24.2978 2.37613C32.3359 2.37613 38.8522 8.89243 38.8522 16.9306V19.8415H37.5453C36.8918 19.8415 36.476 20.5543 36.476 21.2672V35.8217C36.4097 36.4415 36.8584 36.9977 37.4782 37.064C37.5005 37.0664 37.5229 37.0681 37.5453 37.0692H38.9116L38.7927 37.2473C37.9136 38.4157 36.7737 39.3625 35.4638 40.0123C34.1539 40.6621 32.7104 40.9968 31.2482 40.9899C30.5992 37.8073 27.4929 35.7535 24.3104 36.4026C21.5888 36.9576 19.6266 39.3411 19.6046 42.1186C19.6372 45.3763 22.2874 48 25.5452 47.9998C27.158 47.9736 28.6951 47.3118 29.8224 46.1582C30.583 45.3793 31.0814 44.3824 31.2482 43.3066C33.0792 43.3136 34.8866 42.8929 36.5265 42.0782C38.1663 41.2635 39.5932 40.0771 40.6937 38.6136L41.8225 36.9502C44.3769 36.772 45.9808 35.1681 45.9808 32.8512V25.4255C45.9809 22.8713 44.08 19.8416 41.3473 19.8416ZM9.74331 34.693H6.65425C5.37505 34.6619 4.36328 33.5997 4.39444 32.3205C4.39501 32.2995 4.3958 32.2785 4.39683 32.2573V24.8316C4.39683 23.4653 5.3473 22.2177 6.65425 22.2177H9.74331V34.693ZM28.0998 44.495C27.7741 44.8481 27.3793 45.1306 26.9398 45.3248C26.5004 45.5189 26.0258 45.6207 25.5454 45.6238C23.6126 45.5931 22.0441 44.0507 21.981 42.1187C21.9802 40.183 23.5488 38.6132 25.4845 38.6124C27.4203 38.6116 28.9901 40.1802 28.9909 42.1159V42.1187C29.0153 42.555 28.9487 42.9915 28.7953 43.4006C28.6419 43.8097 28.405 44.1824 28.0998 44.495ZM43.6047 32.8514C43.6047 34.4554 42.0601 34.693 41.3473 34.693H38.8522V22.2178H41.3473C42.6542 22.2178 43.6047 24.0594 43.6047 25.4257V32.8514Z" fill="black"/>
</svg>
