<svg width="24" height="22" viewBox="0 0 24 22" fill="none" xmlns="http://www.w3.org/2000/svg">
<path d="M21.8755 5.34634L20.865 4.71775V1.37779C20.865 1.12489 20.6424 0.919634 20.3682 0.919634C20.094 0.919634 19.8714 1.12489 19.8714 1.37779V4.09924L14.4237 0.708882C12.9045 -0.236752 10.9402 -0.235836 9.42303 0.708882L1.97025 5.34634C0.736236 6.11329 0 7.39154 0 8.76418V17.8714C0 20.1448 2.00602 21.9948 4.47107 21.9948H7.45178C7.72601 21.9948 7.94857 21.7896 7.94857 21.5367V13.2898C7.94857 12.5321 8.61724 11.9154 9.43893 11.9154H14.4068C15.2285 11.9154 15.8971 12.5321 15.8971 13.2898V21.5367C15.8971 21.7896 16.1197 21.9948 16.3939 21.9948H19.3746C21.8397 21.9948 23.8457 20.1448 23.8457 17.8714V8.76418C23.8457 7.39063 23.1095 6.11329 21.8755 5.34634ZM22.8521 17.8714C22.8521 19.6399 21.2922 21.0785 19.3746 21.0785H16.8907V13.2898C16.8907 12.0272 15.7769 10.9991 14.4068 10.9991H9.43893C8.06879 10.9991 6.955 12.0272 6.955 13.2898V21.0785H4.47107C2.55348 21.0785 0.993571 19.6399 0.993571 17.8714V8.76418C0.993571 7.69576 1.56587 6.70248 2.52566 6.10596L9.97744 1.4685C11.1588 0.732706 12.6869 0.732706 13.8683 1.4685L21.32 6.10596C22.2798 6.70248 22.8521 7.69668 22.8521 8.76418V17.8714Z" fill="white"/>
</svg>
