<svg width="28" height="28" viewBox="0 0 28 28" fill="none" xmlns="http://www.w3.org/2000/svg">
<path d="M21.8924 26.6672H5.20845C4.35783 26.6661 3.54234 26.3278 2.94086 25.7263C2.33938 25.1248 2.00102 24.3093 2 23.4587V14.4751C2.00102 13.6244 2.33938 12.8089 2.94086 12.2075C3.54234 11.606 4.35783 11.2676 5.20845 11.2666H21.8924C22.743 11.2676 23.5585 11.606 24.16 12.2075C24.7614 12.8089 25.0998 13.6244 25.1008 14.4751V23.4587C25.0998 24.3093 24.7614 25.1248 24.16 25.7263C23.5585 26.3278 22.743 26.6661 21.8924 26.6672ZM5.20845 12.55C4.69789 12.55 4.20824 12.7528 3.84722 13.1138C3.4862 13.4748 3.28338 13.9645 3.28338 14.4751V23.4587C3.28338 23.9693 3.4862 24.4589 3.84722 24.8199C4.20824 25.181 4.69789 25.3838 5.20845 25.3838H21.8924C22.4029 25.3838 22.8926 25.181 23.2536 24.8199C23.6146 24.4589 23.8174 23.9693 23.8174 23.4587V14.4751C23.8174 13.9645 23.6146 13.4748 23.2536 13.1138C22.8926 12.7528 22.4029 12.55 21.8924 12.55H5.20845ZM18.0422 6.7812C17.9544 6.78116 17.8675 6.76309 17.7869 6.7281C17.7063 6.69311 17.6338 6.64195 17.5738 6.57778C17.0544 6.03368 16.4301 5.60058 15.7385 5.30467C15.047 5.00876 14.3026 4.85619 13.5504 4.85619C12.7982 4.85619 12.0538 5.00876 11.3623 5.30467C10.6707 5.60058 10.0464 6.03368 9.52702 6.57778C9.4701 6.64172 9.40096 6.69362 9.32367 6.73043C9.24639 6.76724 9.16252 6.78821 9.07701 6.79211C8.99149 6.79602 8.90606 6.78277 8.82575 6.75316C8.74543 6.72354 8.67185 6.67815 8.60934 6.61967C8.54683 6.56118 8.49666 6.49078 8.46177 6.41261C8.42688 6.33444 8.40799 6.25008 8.4062 6.1645C8.40441 6.07891 8.41977 5.99384 8.45136 5.91428C8.48295 5.83472 8.53014 5.76228 8.59015 5.70124C9.2295 5.02876 9.9989 4.49331 10.8516 4.12743C11.7043 3.76155 12.6225 3.57288 13.5504 3.57288C14.4783 3.57288 15.3965 3.76155 16.2492 4.12743C17.1019 4.49331 17.8713 5.02876 18.5107 5.70124C18.5961 5.79258 18.653 5.9069 18.6743 6.03012C18.6956 6.15335 18.6804 6.28013 18.6307 6.39486C18.5809 6.50959 18.4987 6.60728 18.3942 6.67592C18.2896 6.74455 18.1673 6.78115 18.0422 6.7812Z" fill="white"/>
<path d="M16.1172 8.86712C15.9846 8.86698 15.8552 8.82573 15.747 8.74905C15.0998 8.30761 14.3345 8.07148 13.5511 8.07148C12.7677 8.07148 12.0025 8.30761 11.3552 8.74905C11.2163 8.84741 11.0439 8.88655 10.8761 8.85785C10.7083 8.82915 10.5588 8.73496 10.4604 8.596C10.362 8.45704 10.3229 8.2847 10.3516 8.11689C10.3803 7.94907 10.4745 7.79953 10.6134 7.70117C11.4787 7.10921 12.5027 6.79247 13.5511 6.79247C14.5995 6.79247 15.6235 7.10921 16.4888 7.70117C16.6002 7.77981 16.6837 7.89192 16.7271 8.02123C16.7705 8.15053 16.7716 8.2903 16.7301 8.42025C16.6887 8.55021 16.607 8.66359 16.4968 8.74394C16.3866 8.82429 16.2536 8.86744 16.1172 8.86712ZM20.609 5.49183C20.5094 5.49183 20.4112 5.46863 20.3221 5.42408C20.233 5.37953 20.1555 5.31485 20.0957 5.23515C19.2882 4.29291 18.2832 3.53999 17.152 3.02985C16.0208 2.51971 14.7912 2.26485 13.5505 2.28338C12.3097 2.26485 11.0801 2.51971 9.94889 3.02985C8.81771 3.53999 7.8127 4.29291 7.00523 5.23515C6.90312 5.3713 6.7511 5.46131 6.58262 5.48538C6.41415 5.50945 6.24301 5.4656 6.10686 5.36349C5.97071 5.26138 5.8807 5.10936 5.85664 4.94089C5.83257 4.77241 5.87641 4.60127 5.97852 4.46512C7.57184 2.3591 10.5429 1 13.5505 1C16.5581 1 19.5291 2.3591 21.1224 4.46512C21.1939 4.56046 21.2374 4.67382 21.2481 4.79251C21.2588 4.9112 21.2363 5.03052 21.183 5.13711C21.1297 5.2437 21.0478 5.33334 20.9464 5.39599C20.845 5.45864 20.7282 5.49183 20.609 5.49183ZM7.77525 21.5341H5.85019C5.68 21.5341 5.51678 21.4665 5.39644 21.3461C5.2761 21.2258 5.2085 21.0626 5.2085 20.8924V17.0422C5.2085 16.8721 5.2761 16.7088 5.39644 16.5885C5.51678 16.4682 5.68 16.4006 5.85019 16.4006C6.02037 16.4006 6.18359 16.4682 6.30393 16.5885C6.42427 16.7088 6.49188 16.8721 6.49188 17.0422V20.2507H7.77525C7.94544 20.2507 8.10866 20.3183 8.229 20.4386C8.34934 20.559 8.41694 20.7222 8.41694 20.8924C8.41694 21.0626 8.34934 21.2258 8.229 21.3461C8.10866 21.4665 7.94544 21.5341 7.77525 21.5341ZM10.342 21.5341C10.1718 21.5341 10.0086 21.4665 9.88827 21.3461C9.76793 21.2258 9.70032 21.0626 9.70032 20.8924V17.0422C9.70032 16.8721 9.76793 16.7088 9.88827 16.5885C10.0086 16.4682 10.1718 16.4006 10.342 16.4006C10.5122 16.4006 10.6754 16.4682 10.7958 16.5885C10.9161 16.7088 10.9837 16.8721 10.9837 17.0422V20.8924C10.9837 21.0626 10.9161 21.2258 10.7958 21.3461C10.6754 21.4665 10.5122 21.5341 10.342 21.5341ZM14.8338 21.5341C14.7146 21.5341 14.5977 21.501 14.4962 21.4383C14.3948 21.3756 14.3128 21.2859 14.2595 21.1792L12.3345 17.3291C12.2584 17.1768 12.2459 17.0005 12.2998 16.839C12.3538 16.6775 12.4696 16.544 12.6219 16.4679C12.7743 16.3919 12.9506 16.3794 13.112 16.4333C13.2735 16.4872 13.407 16.6031 13.4831 16.7554L14.8338 19.4576L16.1846 16.7554C16.2607 16.6031 16.3941 16.4872 16.5556 16.4333C16.7171 16.3794 16.8934 16.3919 17.0457 16.4679C17.1981 16.544 17.3139 16.6775 17.3678 16.839C17.4217 17.0005 17.4093 17.1768 17.3332 17.3291L15.4082 21.1792C15.3549 21.2859 15.2729 21.3756 15.1714 21.4383C15.07 21.501 14.9531 21.5341 14.8338 21.5341ZM21.2507 21.5341H19.3257C19.1555 21.5341 18.9923 21.4665 18.8719 21.3461C18.7516 21.2258 18.684 21.0626 18.684 20.8924V17.0422C18.684 16.8721 18.7516 16.7088 18.8719 16.5885C18.9923 16.4682 19.1555 16.4006 19.3257 16.4006H21.2507C21.4209 16.4006 21.5841 16.4682 21.7045 16.5885C21.8248 16.7088 21.8924 16.8721 21.8924 17.0422C21.8924 17.2124 21.8248 17.3756 21.7045 17.496C21.5841 17.6163 21.4209 17.6839 21.2507 17.6839H19.9674V20.2507H21.2507C21.4209 20.2507 21.5841 20.3183 21.7045 20.4386C21.8248 20.559 21.8924 20.7222 21.8924 20.8924C21.8924 21.0626 21.8248 21.2258 21.7045 21.3461C21.5841 21.4665 21.4209 21.5341 21.2507 21.5341Z" fill="white"/>
<path d="M21.2507 19.6089H19.3256C19.1555 19.6089 18.9922 19.5413 18.8719 19.421C18.7516 19.3007 18.684 19.1374 18.684 18.9673C18.684 18.7971 18.7516 18.6338 18.8719 18.5135C18.9922 18.3932 19.1555 18.3256 19.3256 18.3256H21.2507C21.4209 18.3256 21.5841 18.3932 21.7045 18.5135C21.8248 18.6338 21.8924 18.7971 21.8924 18.9673C21.8924 19.1374 21.8248 19.3007 21.7045 19.421C21.5841 19.5413 21.4209 19.6089 21.2507 19.6089Z" fill="white"/>
</svg>
