<svg width="24" height="24" viewBox="0 0 24 24" fill="none" xmlns="http://www.w3.org/2000/svg">
<path d="M8.10527 11.1797H3.07441C1.37915 11.1797 0 9.80053 0 8.10527V3.07441C0 1.37915 1.37915 0 3.07441 0H8.10527C9.80053 0 11.1797 1.37915 11.1797 3.07441V8.10527C11.1797 9.80053 9.80053 11.1797 8.10527 11.1797ZM3.07441 1.49063C2.20109 1.49063 1.49063 2.20109 1.49063 3.07441V8.10527C1.49063 8.97859 2.20109 9.68906 3.07441 9.68906H8.10527C8.97859 9.68906 9.68906 8.97859 9.68906 8.10527V3.07441C9.68906 2.20109 8.97859 1.49063 8.10527 1.49063H3.07441ZM20.7756 11.1797H15.7447C14.0495 11.1797 12.6703 9.80053 12.6703 8.10527V3.07441C12.6703 1.37915 14.0495 0 15.7447 0H20.7756C22.4708 0 23.85 1.37915 23.85 3.07441V8.10527C23.85 9.80053 22.4708 11.1797 20.7756 11.1797ZM15.7447 1.49063C14.8714 1.49063 14.1609 2.20109 14.1609 3.07441V8.10527C14.1609 8.97859 14.8714 9.68906 15.7447 9.68906H20.7756C21.6489 9.68906 22.3594 8.97859 22.3594 8.10527V3.07441C22.3594 2.20109 21.6489 1.49063 20.7756 1.49063H15.7447ZM18.2602 23.85C15.1779 23.85 12.6703 21.3424 12.6703 18.2602C12.6703 15.1779 15.1779 12.6703 18.2602 12.6703C21.3424 12.6703 23.85 15.1779 23.85 18.2602C23.85 21.3424 21.3424 23.85 18.2602 23.85ZM18.2602 14.1609C15.9999 14.1609 14.1609 15.9999 14.1609 18.2602C14.1609 20.5205 15.9999 22.3594 18.2602 22.3594C20.5205 22.3594 22.3594 20.5205 22.3594 18.2602C22.3594 15.9999 20.5205 14.1609 18.2602 14.1609ZM8.10527 23.85H3.07441C1.37915 23.85 0 22.4708 0 20.7756V15.7447C0 14.0495 1.37915 12.6703 3.07441 12.6703H8.10527C9.80053 12.6703 11.1797 14.0495 11.1797 15.7447V20.7756C11.1797 22.4708 9.80053 23.85 8.10527 23.85ZM3.07441 14.1609C2.20109 14.1609 1.49063 14.8714 1.49063 15.7447V20.7756C1.49063 21.6489 2.20109 22.3594 3.07441 22.3594H8.10527C8.97859 22.3594 9.68906 21.6489 9.68906 20.7756V15.7447C9.68906 14.8714 8.97859 14.1609 8.10527 14.1609H3.07441Z" fill="white"/>
</svg>
