<svg width="49" height="21" viewBox="0 0 49 21" fill="none" xmlns="http://www.w3.org/2000/svg">
<g clip-path="url(#clip0_1_1643)">
<path d="M45.6996 9.65656H35.0929V5.86841H45.6996C46.7456 5.86841 47.5936 6.71638 47.5936 7.76244C47.5936 8.8085 46.7456 9.65656 45.6996 9.65656Z" fill="#B3DAFE"/>
<path d="M35.093 9.65659H2.89403C1.84797 9.65659 1 8.80862 1 7.76256C1 6.7165 1.84797 5.86853 2.89403 5.86853H35.0929C36.139 5.86853 36.987 6.7165 36.987 7.76256C36.9871 8.80853 36.1391 9.65659 35.093 9.65659Z" fill="#FFC802"/>
<path d="M35.0933 5.86841H32.8204C33.8665 5.86841 34.7145 6.71638 34.7145 7.76244C34.7145 8.8085 33.8665 9.65647 32.8204 9.65647H35.0933C36.1394 9.65647 36.9873 8.8085 36.9873 7.76244C36.9873 6.71638 36.1393 5.86841 35.0933 5.86841Z" fill="#D3A707"/>
<path d="M35.4132 13.1443H33.312V18.1309H35.4132M35.2582 15.6377H33.312M24.0279 13.5701C23.6163 13.2918 23.1307 13.1435 22.6338 13.1443C21.2568 13.1443 20.1406 14.2606 20.1406 15.6376C20.1406 17.0146 21.2568 18.1309 22.6338 18.1309C24.0108 18.1309 24.7862 17.0146 24.7862 15.6376H23.2944M41.3153 13.6569C41.3153 13.6569 40.4205 12.9048 39.3653 13.2227C38.3964 13.5145 38.2609 14.6317 38.9619 15.0887C38.9619 15.0887 39.6497 15.3955 40.4126 15.6769C42.249 16.3543 41.458 18.1309 39.9796 18.1309C39.2392 18.1309 38.6179 17.8068 38.2418 17.3917M47.4289 13.6569C47.4289 13.6569 46.5341 12.9048 45.4789 13.2227C44.51 13.5145 44.3746 14.6317 45.0755 15.0887C45.0755 15.0887 45.7634 15.3955 46.5262 15.6769C48.3627 16.3543 47.5716 18.1309 46.0932 18.1309C45.3528 18.1309 44.7316 17.8068 44.3554 17.3917M7.32522 15.7509L9.41997 18.1309M6.72391 15.742V18.1309M6.72391 15.742C6.72391 15.742 7.68278 15.7363 8.05066 15.7363C8.79241 15.7363 9.41997 15.1561 9.41997 14.4403C9.41997 13.7245 8.79231 13.1443 8.05066 13.1444H6.7255L6.72391 15.742ZM28.3034 15.7509L30.398 18.1309M27.7021 15.742V18.1309M27.7021 15.742C27.7021 15.742 28.6608 15.7363 29.0287 15.7363C29.7705 15.7363 30.398 15.1561 30.398 14.4403C30.398 13.7245 29.7705 13.1443 29.0287 13.1444H27.7036L27.7021 15.742ZM1 15.9649V18.1309M1 15.9649C1 15.9649 2.00312 15.9588 2.38853 15.9588C3.16572 15.9588 3.82328 15.3288 3.82328 14.5516C3.82328 13.7744 3.16572 13.1443 2.38853 13.1443H1V15.9649Z" stroke="white" stroke-width="0.791016" stroke-miterlimit="10" stroke-linecap="round" stroke-linejoin="round"/>
<path d="M14.7342 18.1312C16.1112 18.1312 17.2275 17.0149 17.2275 15.6379C17.2275 14.2609 16.1112 13.1447 14.7342 13.1447C13.3572 13.1447 12.241 14.2609 12.241 15.6379C12.241 17.0149 13.3572 18.1312 14.7342 18.1312Z" stroke="white" stroke-width="0.791016" stroke-miterlimit="10" stroke-linecap="round" stroke-linejoin="round"/>
<path d="M35.0929 5.86841C36.139 5.86841 36.9869 6.71638 36.9869 7.76244C36.9869 8.8085 36.139 9.65647 35.0929 9.65647" stroke="white" stroke-width="0.791016" stroke-miterlimit="10" stroke-linecap="round" stroke-linejoin="round"/>
<path d="M5.68 9.65697H2.89375C1.84844 9.65697 1 8.80853 1 7.76228C0.999578 7.51355 1.0484 7.26719 1.14366 7.03742C1.23891 6.80765 1.37872 6.59901 1.555 6.42353C1.89813 6.08041 2.37063 5.86853 2.89375 5.86853H41.4803M44.7709 5.86853H45.7C46.7453 5.86853 47.5938 6.71603 47.5938 7.76228C47.5938 8.28541 47.3819 8.75884 47.0388 9.10197C46.6956 9.44509 46.2231 9.65697 45.7 9.65697H8.97063" stroke="white" stroke-width="0.791016" stroke-miterlimit="10" stroke-linecap="round" stroke-linejoin="round"/>
</g>
<defs>
<clipPath id="clip0_1_1643">
<rect width="48" height="21" fill="white" transform="translate(0.302734)"/>
</clipPath>
</defs>
</svg>
