<svg width="28" height="28" viewBox="0 0 28 28" fill="none" xmlns="http://www.w3.org/2000/svg">
<g clip-path="url(#clip0_1_1653)">
<path d="M9.72089 6.57459C9.64044 6.82216 9.71963 7.0875 9.92252 7.25063L11.7291 8.70269L11.1211 10.9394C11.0528 11.1905 11.1447 11.4517 11.3554 11.6049C11.5662 11.7578 11.8429 11.7645 12.0607 11.622L14 10.3526L15.9393 11.6221C16.0404 11.6887 16.1587 11.7243 16.2798 11.7245C16.4109 11.7243 16.5386 11.6824 16.6444 11.6049C16.8553 11.4518 16.9472 11.1905 16.8788 10.9394L16.2708 8.70275L18.0772 7.25074C18.2803 7.08766 18.3595 6.82227 18.279 6.57459C18.1985 6.32685 17.9785 6.15869 17.7184 6.14611L15.4034 6.03323L14.5806 3.86641C14.4883 3.62299 14.2603 3.46566 13.9999 3.46566C13.7395 3.46566 13.5116 3.62294 13.4192 3.86635L12.5965 6.03329L10.2815 6.14611C10.0214 6.15869 9.80133 6.32685 9.72089 6.57459ZM12.805 6.8991C12.9258 6.89324 13.0421 6.85228 13.1399 6.78124C13.2377 6.7102 13.3126 6.61217 13.3554 6.49917L13.9999 4.80195L14.6443 6.49934C14.6872 6.61227 14.7621 6.71024 14.8599 6.78125C14.9577 6.85225 15.074 6.89321 15.1947 6.8991L17.0079 6.98753L15.5928 8.12487C15.4987 8.20057 15.4286 8.30212 15.3912 8.41705C15.3539 8.53199 15.3509 8.65532 15.3826 8.77193L15.8589 10.5238L14.3399 9.52941C14.2388 9.46324 14.1206 9.42801 13.9997 9.42802C13.8789 9.42803 13.7606 9.46328 13.6595 9.52946L12.1406 10.5238L12.6169 8.77204C12.6487 8.65541 12.6457 8.53204 12.6083 8.41708C12.571 8.30212 12.5009 8.20057 12.4066 8.12487L10.9916 6.98759L12.805 6.8991ZM13.5624 2.04302V0.4375C13.5624 0.321468 13.6084 0.210188 13.6905 0.128141C13.7725 0.0460936 13.8838 0 13.9999 0C14.1159 0 14.2272 0.0460936 14.3092 0.128141C14.3913 0.210188 14.4374 0.321468 14.4374 0.4375V2.04302C14.4374 2.15905 14.3913 2.27033 14.3092 2.35237C14.2272 2.43442 14.1159 2.48052 13.9999 2.48052C13.8838 2.48052 13.7725 2.43442 13.6905 2.35237C13.6084 2.27033 13.5624 2.15905 13.5624 2.04302ZM16.2267 4.63509C16.149 4.54887 16.1088 4.43533 16.1149 4.31946C16.121 4.20359 16.1728 4.09488 16.2591 4.01723L18.0482 2.40625C18.0908 2.3678 18.1407 2.33814 18.1949 2.31896C18.249 2.29978 18.3064 2.29145 18.3638 2.29446C18.4212 2.29746 18.4774 2.31173 18.5293 2.33647C18.5811 2.3612 18.6276 2.3959 18.666 2.4386C18.7045 2.48129 18.7341 2.53114 18.7533 2.5853C18.7725 2.63946 18.7808 2.69686 18.7778 2.75424C18.7748 2.81162 18.7606 2.86784 18.7358 2.9197C18.7111 2.97156 18.6764 3.01804 18.6337 3.05648L16.8445 4.66747C16.7643 4.73992 16.66 4.77998 16.5519 4.77985C16.4906 4.77994 16.4299 4.76709 16.3739 4.74215C16.3178 4.7172 16.2677 4.68073 16.2267 4.63509ZM9.33365 2.43862C9.37209 2.39592 9.41857 2.36121 9.47043 2.33647C9.52229 2.31174 9.57852 2.29746 9.6359 2.29445C9.69328 2.29144 9.75069 2.29977 9.80485 2.31895C9.85901 2.33814 9.90886 2.3678 9.95156 2.40625L11.7407 4.01723C11.8269 4.09488 11.8788 4.2036 11.8849 4.31948C11.8909 4.43535 11.8507 4.54889 11.7731 4.63512C11.6954 4.72135 11.5867 4.7732 11.4708 4.77926C11.3549 4.78533 11.2414 4.74512 11.1552 4.66747L9.36602 3.05648C9.2798 2.97884 9.22794 2.87013 9.22187 2.75426C9.2158 2.63839 9.25601 2.52485 9.33365 2.43862ZM19.6127 7.25063L21.4193 8.70269L20.8112 10.9394C20.7429 11.1905 20.8349 11.4517 21.0456 11.6049C21.2562 11.7578 21.5329 11.7645 21.7508 11.622L23.6901 10.3526L25.6294 11.6221C25.7305 11.6887 25.8489 11.7243 25.9699 11.7245C26.1011 11.7243 26.2288 11.6824 26.3346 11.6049C26.5453 11.4519 26.6373 11.1907 26.569 10.9394L25.9609 8.70275L27.7674 7.25074C27.9704 7.08772 28.0496 6.82232 27.9691 6.57459C27.8886 6.32685 27.6686 6.15869 27.4086 6.14611L25.0935 6.03323L24.2708 3.86641C24.1785 3.62299 23.9505 3.46566 23.6901 3.46566C23.4297 3.46566 23.2017 3.62294 23.1093 3.86635L22.2867 6.03323L19.9717 6.14605C19.7115 6.15863 19.4915 6.32685 19.411 6.57459C19.3305 6.82227 19.4097 7.08766 19.6127 7.25063ZM22.4951 6.8991C22.6159 6.89324 22.7323 6.85228 22.8301 6.78123C22.9278 6.71018 23.0028 6.61213 23.0457 6.49912L23.69 4.80189L24.3344 6.49906C24.3772 6.61207 24.4522 6.71012 24.5499 6.78117C24.6477 6.85222 24.7641 6.89318 24.8849 6.89905L26.6981 6.98748L25.2832 8.1247C25.1889 8.20039 25.1188 8.30194 25.0815 8.4169C25.0441 8.53186 25.0411 8.65523 25.0728 8.77187L25.5491 10.5237L24.0301 9.52935C23.929 9.46314 23.8108 9.42788 23.6899 9.42789C23.569 9.4279 23.4508 9.46318 23.3497 9.52941L21.8308 10.5237L22.3071 8.77198C22.3388 8.65535 22.3358 8.532 22.2985 8.41704C22.2611 8.30209 22.191 8.20053 22.0968 8.12481L20.6818 6.98748L22.4951 6.8991ZM0.232278 7.25063L2.03888 8.70269L1.43081 10.9394C1.36256 11.1905 1.45449 11.4517 1.6652 11.6049C1.87597 11.7578 2.15263 11.7645 2.37045 11.622L4.30972 10.3526L6.24905 11.6221C6.35013 11.6887 6.46848 11.7243 6.58954 11.7245C6.72069 11.7243 6.8484 11.6824 6.95419 11.6049C7.1649 11.4519 7.25689 11.1907 7.18858 10.9394L6.58051 8.70275L8.387 7.25074C8.5899 7.08783 8.66914 6.82248 8.58869 6.57431C8.50808 6.32674 8.28802 6.15863 8.0282 6.14605L5.71311 6.03318L4.89045 3.86641C4.79808 3.62299 4.57009 3.46566 4.30972 3.46566C4.0493 3.46566 3.82131 3.62294 3.72894 3.86635L2.90628 6.03323L0.591356 6.14605C0.331208 6.15863 0.111145 6.32685 0.0307546 6.57431C-0.0499095 6.8221 0.0292233 7.08761 0.232278 7.25063ZM3.11475 6.8991C3.23548 6.89324 3.35188 6.85228 3.44968 6.78123C3.54747 6.71018 3.6224 6.61213 3.66529 6.49912L4.30967 4.80189L4.954 6.49906C4.99687 6.61207 5.07179 6.71012 5.16958 6.78117C5.26736 6.85222 5.38375 6.89318 5.50448 6.89905L7.31775 6.98748L5.90283 8.1247C5.80857 8.20039 5.73845 8.30194 5.70108 8.4169C5.66371 8.53186 5.66071 8.65523 5.69244 8.77187L6.16872 10.5237L4.64972 9.52935C4.54861 9.46314 4.43038 9.42788 4.30952 9.42789C4.18867 9.4279 4.07044 9.46318 3.96935 9.52941L2.45046 10.5237L2.92673 8.77198C2.95845 8.65535 2.95545 8.532 2.9181 8.41704C2.88075 8.30209 2.81067 8.20053 2.71646 8.12481L1.30142 6.98748L3.11475 6.8991ZM27.931 23.2385C27.6232 22.2444 26.9927 21.3518 26.1556 20.725C25.7603 20.4286 25.323 20.1929 24.8581 20.0257C25.4963 19.5247 25.9076 18.7471 25.9076 17.8747C25.9076 16.3671 24.6811 15.1407 23.1736 15.1407C21.6661 15.1407 20.4396 16.3671 20.4396 17.8747C20.4396 18.7461 20.8499 19.5229 21.4869 20.0239C20.6332 20.3287 19.8768 20.864 19.2977 21.5855C19.0248 21.2037 18.7117 20.8523 18.3636 20.5376C17.6636 19.904 16.8339 19.4306 15.9322 19.1505C16.8802 18.522 17.507 17.4459 17.507 16.2258C17.507 14.292 15.9337 12.7188 13.9999 12.7188C12.0662 12.7188 10.4929 14.292 10.4929 16.2258C10.4929 17.4459 11.1195 18.522 12.0675 19.1505C11.1658 19.4306 10.3361 19.9039 9.63607 20.5376C9.28805 20.8523 8.97493 21.2036 8.70211 21.5854C8.12297 20.8639 7.36665 20.3285 6.51286 20.0238C7.14981 19.5228 7.56013 18.7459 7.56013 17.8745C7.56013 16.367 6.33365 15.1406 4.82619 15.1406C3.31868 15.1406 2.0922 16.367 2.0922 17.8745C2.0922 18.7469 2.50345 19.5246 3.14165 20.0255C2.67673 20.1927 2.23939 20.4284 1.84408 20.7248C1.00698 21.3516 0.376489 22.2442 0.068653 23.2383C-0.0735892 23.6975 0.00521552 24.1635 0.29052 24.5505C0.57577 24.9375 0.99763 25.1506 1.47833 25.1506H7.52639V25.9401C7.52639 27.076 8.45044 28.0001 9.5863 28.0001H18.4134C19.5492 28.0001 20.4733 27.076 20.4734 25.9401V25.1508H26.5214C27.0021 25.1508 27.424 24.9377 27.7092 24.5508C27.9944 24.1637 28.0732 23.6976 27.931 23.2385ZM23.1736 16.0157C24.1986 16.0157 25.0326 16.8497 25.0326 17.8747C25.0326 18.8997 24.1986 19.7337 23.1736 19.7337C22.1486 19.7337 21.3146 18.8997 21.3146 17.8747C21.3146 16.8497 22.1486 16.0157 23.1736 16.0157ZM11.3679 16.2258C11.3679 14.7745 12.5486 13.5938 13.9999 13.5938C15.4512 13.5938 16.632 14.7745 16.632 16.2258C16.632 17.6766 15.452 18.857 14.0013 18.8578H13.9984C12.5478 18.857 11.3679 17.6766 11.3679 16.2258ZM4.82619 16.0155C5.8512 16.0155 6.68513 16.8494 6.68513 17.8744C6.68513 18.8995 5.8512 19.7334 4.82619 19.7334C3.80113 19.7334 2.9672 18.8995 2.9672 17.8744C2.9672 16.8494 3.80113 16.0155 4.82619 16.0155ZM7.58321 24.2755H1.47839C1.27703 24.2755 1.11439 24.1934 0.994895 24.0313C0.875348 23.8692 0.844997 23.6895 0.904551 23.4971C1.43961 21.7693 3.01565 20.6084 4.82619 20.6084C6.19573 20.6084 7.44332 21.2702 8.21064 22.3903C7.90574 22.9827 7.69411 23.6186 7.58321 24.2755ZM19.5984 25.9401C19.5983 26.5934 19.0668 27.125 18.4134 27.125H9.5863C8.93295 27.125 8.40139 26.5934 8.40139 25.9401V24.7368C8.71814 21.8828 11.1202 19.7335 13.9984 19.7328L13.9999 19.7328L14.0013 19.7328C16.8795 19.7335 19.2815 21.8828 19.5984 24.7368V25.9401ZM27.0049 24.0315C26.8854 24.1936 26.7228 24.2757 26.5214 24.2757H20.4166C20.3057 23.6188 20.094 22.9829 19.7892 22.3904C20.5566 21.2703 21.8041 20.6087 23.1736 20.6087C24.9841 20.6087 26.5602 21.7696 27.0952 23.4974C27.1548 23.6896 27.1244 23.8693 27.0049 24.0315Z" fill="#FFC802"/>
</g>
<defs>
<clipPath id="clip0_1_1653">
<rect width="28" height="28" fill="white"/>
</clipPath>
</defs>
</svg>
